<?xml version="1.0" encoding="UTF-8" standalone="no"?>
<!DOCTYPE svg PUBLIC "-//W3C//DTD SVG 1.1//EN"
 "http://www.w3.org/Graphics/SVG/1.1/DTD/svg11.dtd">
<!-- Generated by graphviz version 2.40.1 (20161225.0304)
 -->
<!-- Title: dependency&#45;cruiser output Pages: 1 -->
<svg width="529pt" height="590pt"
 viewBox="0.00 0.00 528.61 590.00" xmlns="http://www.w3.org/2000/svg" xmlns:xlink="http://www.w3.org/1999/xlink">
<g id="graph0" class="graph" transform="scale(1 1) rotate(0) translate(4 586)">
<title>dependency&#45;cruiser output</title>
<polygon fill="#ffffff" stroke="transparent" points="-4,4 -4,-586 524.6123,-586 524.6123,4 -4,4"/>
<g id="clust1" class="cluster">
<title>cluster_src</title>
<path fill="#ffffff" stroke="#000000" stroke-width="2" d="M20,-8C20,-8 500.6123,-8 500.6123,-8 506.6123,-8 512.6123,-14 512.6123,-20 512.6123,-20 512.6123,-562 512.6123,-562 512.6123,-568 506.6123,-574 500.6123,-574 500.6123,-574 20,-574 20,-574 14,-574 8,-568 8,-562 8,-562 8,-20 8,-20 8,-14 14,-8 20,-8"/>
<text text-anchor="middle" x="260.3062" y="-562.8" font-family="Helvetica,sans-Serif" font-weight="bold" font-size="9.00" fill="#000000">src</text>
</g>
<g id="clust2" class="cluster">
<title>cluster_src/boundary</title>
<path fill="#ffffff" stroke="#000000" stroke-width="2" d="M181.7983,-259C181.7983,-259 291.8276,-259 291.8276,-259 297.8276,-259 303.8276,-265 303.8276,-271 303.8276,-271 303.8276,-390 303.8276,-390 303.8276,-396 297.8276,-402 291.8276,-402 291.8276,-402 181.7983,-402 181.7983,-402 175.7983,-402 169.7983,-396 169.7983,-390 169.7983,-390 169.7983,-271 169.7983,-271 169.7983,-265 175.7983,-259 181.7983,-259"/>
<text text-anchor="middle" x="236.813" y="-390.8" font-family="Helvetica,sans-Serif" font-weight="bold" font-size="9.00" fill="#000000">boundary</text>
</g>
<g id="clust3" class="cluster">
<title>cluster_src/boundary/bookApplicationService</title>
<path fill="#ffffff" stroke="#000000" stroke-width="2" d="M189.7983,-326C189.7983,-326 283.8276,-326 283.8276,-326 289.8276,-326 295.8276,-332 295.8276,-338 295.8276,-338 295.8276,-365 295.8276,-365 295.8276,-371 289.8276,-377 283.8276,-377 283.8276,-377 189.7983,-377 189.7983,-377 183.7983,-377 177.7983,-371 177.7983,-365 177.7983,-365 177.7983,-338 177.7983,-338 177.7983,-332 183.7983,-326 189.7983,-326"/>
<text text-anchor="middle" x="236.813" y="-365.8" font-family="Helvetica,sans-Serif" font-weight="bold" font-size="9.00" fill="#000000">bookApplicationService</text>
</g>
<g id="clust4" class="cluster">
<title>cluster_src/boundary/userApplicationService</title>
<path fill="#ffffff" stroke="#000000" stroke-width="2" d="M190.7983,-267C190.7983,-267 282.8276,-267 282.8276,-267 288.8276,-267 294.8276,-273 294.8276,-279 294.8276,-279 294.8276,-306 294.8276,-306 294.8276,-312 288.8276,-318 282.8276,-318 282.8276,-318 190.7983,-318 190.7983,-318 184.7983,-318 178.7983,-312 178.7983,-306 178.7983,-306 178.7983,-279 178.7983,-279 178.7983,-273 184.7983,-267 190.7983,-267"/>
<text text-anchor="middle" x="236.813" y="-306.8" font-family="Helvetica,sans-Serif" font-weight="bold" font-size="9.00" fill="#000000">userApplicationService</text>
</g>
<g id="clust5" class="cluster">
<title>cluster_src/components</title>
<path fill="#ffffff" stroke="#000000" stroke-width="2" d="M28,-16C28,-16 287.0903,-16 287.0903,-16 293.0903,-16 299.0903,-22 299.0903,-28 299.0903,-28 299.0903,-239 299.0903,-239 299.0903,-245 293.0903,-251 287.0903,-251 287.0903,-251 28,-251 28,-251 22,-251 16,-245 16,-239 16,-239 16,-28 16,-28 16,-22 22,-16 28,-16"/>
<text text-anchor="middle" x="157.5452" y="-239.8" font-family="Helvetica,sans-Serif" font-weight="bold" font-size="9.00" fill="#000000">components</text>
</g>
<g id="clust6" class="cluster">
<title>cluster_src/components/atoms</title>
<path fill="#ffffff" stroke="#000000" stroke-width="2" d="M202.0479,-24C202.0479,-24 270.5781,-24 270.5781,-24 276.5781,-24 282.5781,-30 282.5781,-36 282.5781,-36 282.5781,-63 282.5781,-63 282.5781,-69 276.5781,-75 270.5781,-75 270.5781,-75 202.0479,-75 202.0479,-75 196.0479,-75 190.0479,-69 190.0479,-63 190.0479,-63 190.0479,-36 190.0479,-36 190.0479,-30 196.0479,-24 202.0479,-24"/>
<text text-anchor="middle" x="236.313" y="-63.8" font-family="Helvetica,sans-Serif" font-weight="bold" font-size="9.00" fill="#000000">atoms</text>
</g>
<g id="clust7" class="cluster">
<title>cluster_src/components/enchanted</title>
<path fill="#ffffff" stroke="#000000" stroke-width="2" d="M193.5356,-83C193.5356,-83 279.0903,-83 279.0903,-83 285.0903,-83 291.0903,-89 291.0903,-95 291.0903,-95 291.0903,-122 291.0903,-122 291.0903,-128 285.0903,-134 279.0903,-134 279.0903,-134 193.5356,-134 193.5356,-134 187.5356,-134 181.5356,-128 181.5356,-122 181.5356,-122 181.5356,-95 181.5356,-95 181.5356,-89 187.5356,-83 193.5356,-83"/>
<text text-anchor="middle" x="236.313" y="-122.8" font-family="Helvetica,sans-Serif" font-weight="bold" font-size="9.00" fill="#000000">enchanted</text>
</g>
<g id="clust8" class="cluster">
<title>cluster_src/components/molecules</title>
<path fill="#ffffff" stroke="#000000" stroke-width="2" d="M198.8049,-142C198.8049,-142 273.821,-142 273.821,-142 279.821,-142 285.821,-148 285.821,-154 285.821,-154 285.821,-214 285.821,-214 285.821,-220 279.821,-226 273.821,-226 273.821,-226 198.8049,-226 198.8049,-226 192.8049,-226 186.8049,-220 186.8049,-214 186.8049,-214 186.8049,-154 186.8049,-154 186.8049,-148 192.8049,-142 198.8049,-142"/>
<text text-anchor="middle" x="236.313" y="-214.8" font-family="Helvetica,sans-Serif" font-weight="bold" font-size="9.00" fill="#000000">molecules</text>
</g>
<g id="clust9" class="cluster">
<title>cluster_src/components/molecules/markdown</title>
<path fill="#ffffff" stroke="#000000" stroke-width="2" d="M206.8049,-150C206.8049,-150 265.821,-150 265.821,-150 271.821,-150 277.821,-156 277.821,-162 277.821,-162 277.821,-189 277.821,-189 277.821,-195 271.821,-201 265.821,-201 265.821,-201 206.8049,-201 206.8049,-201 200.8049,-201 194.8049,-195 194.8049,-189 194.8049,-189 194.8049,-162 194.8049,-162 194.8049,-156 200.8049,-150 206.8049,-150"/>
<text text-anchor="middle" x="236.313" y="-189.8" font-family="Helvetica,sans-Serif" font-weight="bold" font-size="9.00" fill="#000000">markdown</text>
</g>
<g id="clust10" class="cluster">
<title>cluster_src/components/organisms</title>
<path fill="#ffffff" stroke="#000000" stroke-width="2" d="M36,-175C36,-175 127.5356,-175 127.5356,-175 133.5356,-175 139.5356,-181 139.5356,-187 139.5356,-187 139.5356,-214 139.5356,-214 139.5356,-220 133.5356,-226 127.5356,-226 127.5356,-226 36,-226 36,-226 30,-226 24,-220 24,-214 24,-214 24,-187 24,-187 24,-181 30,-175 36,-175"/>
<text text-anchor="middle" x="81.7678" y="-214.8" font-family="Helvetica,sans-Serif" font-weight="bold" font-size="9.00" fill="#000000">organisms</text>
</g>
<g id="clust11" class="cluster">
<title>cluster_src/config</title>
<path fill="#ffffff" stroke="#000000" stroke-width="2" d="M203.885,-410C203.885,-410 413.3513,-410 413.3513,-410 419.3513,-410 425.3513,-416 425.3513,-422 425.3513,-422 425.3513,-537 425.3513,-537 425.3513,-543 419.3513,-549 413.3513,-549 413.3513,-549 203.885,-549 203.885,-549 197.885,-549 191.885,-543 191.885,-537 191.885,-537 191.885,-422 191.885,-422 191.885,-416 197.885,-410 203.885,-410"/>
<text text-anchor="middle" x="308.6182" y="-537.8" font-family="Helvetica,sans-Serif" font-weight="bold" font-size="9.00" fill="#000000">config</text>
</g>
<g id="clust12" class="cluster">
<title>cluster_src/config/user</title>
<path fill="#ffffff" stroke="#000000" stroke-width="2" d="M211.885,-418C211.885,-418 405.3513,-418 405.3513,-418 411.3513,-418 417.3513,-424 417.3513,-430 417.3513,-430 417.3513,-486 417.3513,-486 417.3513,-492 411.3513,-498 405.3513,-498 405.3513,-498 211.885,-498 211.885,-498 205.885,-498 199.885,-492 199.885,-486 199.885,-486 199.885,-430 199.885,-430 199.885,-424 205.885,-418 211.885,-418"/>
<text text-anchor="middle" x="308.6182" y="-486.8" font-family="Helvetica,sans-Serif" font-weight="bold" font-size="9.00" fill="#000000">user</text>
</g>
<g id="clust13" class="cluster">
<title>cluster_src/drivers</title>
<path fill="#ffffff" stroke="#000000" stroke-width="2" d="M358.5847,-24C358.5847,-24 406.1179,-24 406.1179,-24 412.1179,-24 418.1179,-30 418.1179,-36 418.1179,-36 418.1179,-63 418.1179,-63 418.1179,-69 412.1179,-75 406.1179,-75 406.1179,-75 358.5847,-75 358.5847,-75 352.5847,-75 346.5847,-69 346.5847,-63 346.5847,-63 346.5847,-36 346.5847,-36 346.5847,-30 352.5847,-24 358.5847,-24"/>
<text text-anchor="middle" x="382.3513" y="-63.8" font-family="Helvetica,sans-Serif" font-weight="bold" font-size="9.00" fill="#000000">drivers</text>
</g>
<g id="clust14" class="cluster">
<title>cluster_src/firebase</title>
<path fill="#ffffff" stroke="#000000" stroke-width="2" d="M359.3513,-83C359.3513,-83 492.6123,-83 492.6123,-83 498.6123,-83 504.6123,-89 504.6123,-95 504.6123,-95 504.6123,-122 504.6123,-122 504.6123,-128 498.6123,-134 492.6123,-134 492.6123,-134 359.3513,-134 359.3513,-134 353.3513,-134 347.3513,-128 347.3513,-122 347.3513,-122 347.3513,-95 347.3513,-95 347.3513,-89 353.3513,-83 359.3513,-83"/>
<text text-anchor="middle" x="425.9818" y="-122.8" font-family="Helvetica,sans-Serif" font-weight="bold" font-size="9.00" fill="#000000">firebase</text>
</g>
<g id="clust15" class="cluster">
<title>cluster_src/store</title>
<path fill="#ffffff" stroke="#000000" stroke-width="2" d="M342.0903,-142C342.0903,-142 422.6123,-142 422.6123,-142 428.6123,-142 434.6123,-148 434.6123,-154 434.6123,-154 434.6123,-247 434.6123,-247 434.6123,-253 428.6123,-259 422.6123,-259 422.6123,-259 342.0903,-259 342.0903,-259 336.0903,-259 330.0903,-253 330.0903,-247 330.0903,-247 330.0903,-154 330.0903,-154 330.0903,-148 336.0903,-142 342.0903,-142"/>
<text text-anchor="middle" x="382.3513" y="-247.8" font-family="Helvetica,sans-Serif" font-weight="bold" font-size="9.00" fill="#000000">store</text>
</g>
<g id="clust16" class="cluster">
<title>cluster_src/store/middleware</title>
<path fill="#ffffff" stroke="#000000" stroke-width="2" d="M350.0903,-150C350.0903,-150 414.6123,-150 414.6123,-150 420.6123,-150 426.6123,-156 426.6123,-162 426.6123,-162 426.6123,-222 426.6123,-222 426.6123,-228 420.6123,-234 414.6123,-234 414.6123,-234 350.0903,-234 350.0903,-234 344.0903,-234 338.0903,-228 338.0903,-222 338.0903,-222 338.0903,-162 338.0903,-162 338.0903,-156 344.0903,-150 350.0903,-150"/>
<text text-anchor="middle" x="382.3513" y="-222.8" font-family="Helvetica,sans-Serif" font-weight="bold" font-size="9.00" fill="#000000">middleware</text>
</g>
<g id="clust17" class="cluster">
<title>cluster_src/store/middleware/auth</title>
<path fill="#ffffff" stroke="#000000" stroke-width="2" d="M358.0903,-158C358.0903,-158 406.6123,-158 406.6123,-158 412.6123,-158 418.6123,-164 418.6123,-170 418.6123,-170 418.6123,-197 418.6123,-197 418.6123,-203 412.6123,-209 406.6123,-209 406.6123,-209 358.0903,-209 358.0903,-209 352.0903,-209 346.0903,-203 346.0903,-197 346.0903,-197 346.0903,-170 346.0903,-170 346.0903,-164 352.0903,-158 358.0903,-158"/>
<text text-anchor="middle" x="382.3513" y="-197.8" font-family="Helvetica,sans-Serif" font-weight="bold" font-size="9.00" fill="#000000">auth</text>
</g>
<!-- src/boundary/bookApplicationService/InOutType.ts -->
<g id="node1" class="node">
<title>src/boundary/bookApplicationService/InOutType.ts</title>
<g id="a_node1"><a xlink:href="src/boundary/bookApplicationService/InOutType.ts" xlink:title="InOutType.ts">
<path fill="#ddfeff" stroke="#000000" d="M264.1756,-351.5C264.1756,-351.5 208.4504,-351.5 208.4504,-351.5 205.617,-351.5 202.7837,-348.6667 202.7837,-345.8333 202.7837,-345.8333 202.7837,-340.1667 202.7837,-340.1667 202.7837,-337.3333 205.617,-334.5 208.4504,-334.5 208.4504,-334.5 264.1756,-334.5 264.1756,-334.5 267.009,-334.5 269.8423,-337.3333 269.8423,-340.1667 269.8423,-340.1667 269.8423,-345.8333 269.8423,-345.8333 269.8423,-348.6667 267.009,-351.5 264.1756,-351.5"/>
<text text-anchor="middle" x="236.313" y="-340.3" font-family="Helvetica,sans-Serif" font-size="9.00" fill="#000000">InOutType.ts</text>
</a>
</g>
</g>
<!-- src/boundary/userApplicationService/InOutType.ts -->
<g id="node2" class="node">
<title>src/boundary/userApplicationService/InOutType.ts</title>
<g id="a_node2"><a xlink:href="src/boundary/userApplicationService/InOutType.ts" xlink:title="InOutType.ts">
<path fill="#ddfeff" stroke="#000000" d="M264.1756,-292.5C264.1756,-292.5 208.4504,-292.5 208.4504,-292.5 205.617,-292.5 202.7837,-289.6667 202.7837,-286.8333 202.7837,-286.8333 202.7837,-281.1667 202.7837,-281.1667 202.7837,-278.3333 205.617,-275.5 208.4504,-275.5 208.4504,-275.5 264.1756,-275.5 264.1756,-275.5 267.009,-275.5 269.8423,-278.3333 269.8423,-281.1667 269.8423,-281.1667 269.8423,-286.8333 269.8423,-286.8333 269.8423,-289.6667 267.009,-292.5 264.1756,-292.5"/>
<text text-anchor="middle" x="236.313" y="-281.3" font-family="Helvetica,sans-Serif" font-size="9.00" fill="#000000">InOutType.ts</text>
</a>
</g>
</g>
<!-- src/components/atoms/spaceStick.vue -->
<g id="node3" class="node">
<title>src/components/atoms/spaceStick.vue</title>
<g id="a_node3"><a xlink:href="src/components/atoms/spaceStick.vue" xlink:title="spaceStick.vue">
<path fill="#41f083" stroke="#000000" d="M268.678,-49.5C268.678,-49.5 203.9479,-49.5 203.9479,-49.5 201.1146,-49.5 198.2813,-46.6667 198.2813,-43.8333 198.2813,-43.8333 198.2813,-38.1667 198.2813,-38.1667 198.2813,-35.3333 201.1146,-32.5 203.9479,-32.5 203.9479,-32.5 268.678,-32.5 268.678,-32.5 271.5114,-32.5 274.3447,-35.3333 274.3447,-38.1667 274.3447,-38.1667 274.3447,-43.8333 274.3447,-43.8333 274.3447,-46.6667 271.5114,-49.5 268.678,-49.5"/>
<text text-anchor="middle" x="236.313" y="-38.3" font-family="Helvetica,sans-Serif" font-size="9.00" fill="#000000">spaceStick.vue</text>
</a>
</g>
</g>
<!-- src/components/enchanted/imageUploader.vue -->
<g id="node4" class="node">
<title>src/components/enchanted/imageUploader.vue</title>
<g id="a_node4"><a xlink:href="src/components/enchanted/imageUploader.vue" xlink:title="imageUploader.vue">
<path fill="#41f083" stroke="#000000" d="M277.2021,-108.5C277.2021,-108.5 195.4239,-108.5 195.4239,-108.5 192.5906,-108.5 189.7572,-105.6667 189.7572,-102.8333 189.7572,-102.8333 189.7572,-97.1667 189.7572,-97.1667 189.7572,-94.3333 192.5906,-91.5 195.4239,-91.5 195.4239,-91.5 277.2021,-91.5 277.2021,-91.5 280.0354,-91.5 282.8687,-94.3333 282.8687,-97.1667 282.8687,-97.1667 282.8687,-102.8333 282.8687,-102.8333 282.8687,-105.6667 280.0354,-108.5 277.2021,-108.5"/>
<text text-anchor="middle" x="236.313" y="-97.3" font-family="Helvetica,sans-Serif" font-size="9.00" fill="#000000">imageUploader.vue</text>
</a>
</g>
</g>
<!-- src/drivers/ILogger.ts -->
<g id="node11" class="node">
<title>src/drivers/ILogger.ts</title>
<g id="a_node11"><a xlink:href="src/drivers/ILogger.ts" xlink:title="ILogger.ts">
<path fill="#ddfeff" stroke="#000000" d="M404.2198,-49.5C404.2198,-49.5 360.4828,-49.5 360.4828,-49.5 357.6495,-49.5 354.8162,-46.6667 354.8162,-43.8333 354.8162,-43.8333 354.8162,-38.1667 354.8162,-38.1667 354.8162,-35.3333 357.6495,-32.5 360.4828,-32.5 360.4828,-32.5 404.2198,-32.5 404.2198,-32.5 407.0531,-32.5 409.8865,-35.3333 409.8865,-38.1667 409.8865,-38.1667 409.8865,-43.8333 409.8865,-43.8333 409.8865,-46.6667 407.0531,-49.5 404.2198,-49.5"/>
<text text-anchor="middle" x="382.3513" y="-38.3" font-family="Helvetica,sans-Serif" font-size="9.00" fill="#000000">ILogger.ts</text>
</a>
</g>
</g>
<!-- src/components/enchanted/imageUploader.vue&#45;&gt;src/drivers/ILogger.ts -->
<g id="edge1" class="edge">
<title>src/components/enchanted/imageUploader.vue&#45;&gt;src/drivers/ILogger.ts</title>
<path fill="none" stroke="#000000" stroke-width="2" stroke-opacity="0.466667" d="M265.1761,-91.4703C277.2435,-87.679 291.3372,-82.9551 303.8276,-78 321.7536,-70.8885 341.3794,-61.6412 356.5262,-54.1705"/>
<polygon fill="#000000" fill-opacity="0.466667" stroke="#000000" stroke-width="2" stroke-opacity="0.466667" points="358.3849,-57.1546 365.7701,-49.558 355.2595,-50.8911 358.3849,-57.1546"/>
</g>
<!-- src/firebase/index.ts -->
<g id="node13" class="node">
<title>src/firebase/index.ts</title>
<g id="a_node13"><a xlink:href="src/firebase/index.ts" xlink:title="index.ts">
<path fill="#ddfeff" stroke="#000000" d="M403.6847,-108.5C403.6847,-108.5 361.018,-108.5 361.018,-108.5 358.1847,-108.5 355.3513,-105.6667 355.3513,-102.8333 355.3513,-102.8333 355.3513,-97.1667 355.3513,-97.1667 355.3513,-94.3333 358.1847,-91.5 361.018,-91.5 361.018,-91.5 403.6847,-91.5 403.6847,-91.5 406.518,-91.5 409.3513,-94.3333 409.3513,-97.1667 409.3513,-97.1667 409.3513,-102.8333 409.3513,-102.8333 409.3513,-105.6667 406.518,-108.5 403.6847,-108.5"/>
<text text-anchor="middle" x="382.3513" y="-97.3" font-family="Helvetica,sans-Serif" font-size="9.00" fill="#000000">index.ts</text>
</a>
</g>
</g>
<!-- src/components/enchanted/imageUploader.vue&#45;&gt;src/firebase/index.ts -->
<g id="edge2" class="edge">
<title>src/components/enchanted/imageUploader.vue&#45;&gt;src/firebase/index.ts</title>
<path fill="none" stroke="#000000" stroke-width="2" stroke-opacity="0.466667" d="M282.922,-100C303.0655,-100 326.3081,-100 345.2538,-100"/>
<polygon fill="#000000" fill-opacity="0.466667" stroke="#000000" stroke-width="2" stroke-opacity="0.466667" points="345.2903,-103.5001 355.2902,-100 345.2902,-96.5001 345.2903,-103.5001"/>
</g>
<!-- src/store/middleware/auth/selector.ts -->
<g id="node14" class="node">
<title>src/store/middleware/auth/selector.ts</title>
<g id="a_node14"><a xlink:href="src/store/middleware/auth/selector.ts" xlink:title="selector.ts">
<path fill="#ddfeff" stroke="#000000" d="M404.7086,-183.5C404.7086,-183.5 359.994,-183.5 359.994,-183.5 357.1607,-183.5 354.3273,-180.6667 354.3273,-177.8333 354.3273,-177.8333 354.3273,-172.1667 354.3273,-172.1667 354.3273,-169.3333 357.1607,-166.5 359.994,-166.5 359.994,-166.5 404.7086,-166.5 404.7086,-166.5 407.542,-166.5 410.3753,-169.3333 410.3753,-172.1667 410.3753,-172.1667 410.3753,-177.8333 410.3753,-177.8333 410.3753,-180.6667 407.542,-183.5 404.7086,-183.5"/>
<text text-anchor="middle" x="382.3513" y="-172.3" font-family="Helvetica,sans-Serif" font-size="9.00" fill="#000000">selector.ts</text>
</a>
</g>
</g>
<!-- src/components/enchanted/imageUploader.vue&#45;&gt;src/store/middleware/auth/selector.ts -->
<g id="edge3" class="edge">
<title>src/components/enchanted/imageUploader.vue&#45;&gt;src/store/middleware/auth/selector.ts</title>
<path fill="none" stroke="#000000" stroke-width="2" stroke-opacity="0.466667" d="M253.0654,-108.6035C278.4847,-121.6579 326.987,-146.5669 356.8179,-161.8869"/>
<polygon fill="#000000" fill-opacity="0.466667" stroke="#000000" stroke-width="2" stroke-opacity="0.466667" points="355.2998,-165.0419 365.7942,-166.4969 358.4977,-158.815 355.2998,-165.0419"/>
</g>
<!-- src/components/molecules/markdown/markdown.ts -->
<g id="node5" class="node">
<title>src/components/molecules/markdown/markdown.ts</title>
<g id="a_node5"><a xlink:href="src/components/molecules/markdown/markdown.ts" xlink:title="markdown.ts">
<path fill="#ddfeff" stroke="#000000" d="M264.1624,-175.5C264.1624,-175.5 208.4635,-175.5 208.4635,-175.5 205.6302,-175.5 202.7969,-172.6667 202.7969,-169.8333 202.7969,-169.8333 202.7969,-164.1667 202.7969,-164.1667 202.7969,-161.3333 205.6302,-158.5 208.4635,-158.5 208.4635,-158.5 264.1624,-158.5 264.1624,-158.5 266.9958,-158.5 269.8291,-161.3333 269.8291,-164.1667 269.8291,-164.1667 269.8291,-169.8333 269.8291,-169.8333 269.8291,-172.6667 266.9958,-175.5 264.1624,-175.5"/>
<text text-anchor="middle" x="236.313" y="-164.3" font-family="Helvetica,sans-Serif" font-size="9.00" fill="#000000">markdown.ts</text>
</a>
</g>
</g>
<!-- src/components/organisms/createBookForm.vue -->
<g id="node6" class="node">
<title>src/components/organisms/createBookForm.vue</title>
<g id="a_node6"><a xlink:href="src/components/organisms/createBookForm.vue" xlink:title="createBookForm.vue">
<path fill="#41f083" stroke="#000000" d="M125.6379,-200.5C125.6379,-200.5 37.8978,-200.5 37.8978,-200.5 35.0644,-200.5 32.2311,-197.6667 32.2311,-194.8333 32.2311,-194.8333 32.2311,-189.1667 32.2311,-189.1667 32.2311,-186.3333 35.0644,-183.5 37.8978,-183.5 37.8978,-183.5 125.6379,-183.5 125.6379,-183.5 128.4712,-183.5 131.3045,-186.3333 131.3045,-189.1667 131.3045,-189.1667 131.3045,-194.8333 131.3045,-194.8333 131.3045,-197.6667 128.4712,-200.5 125.6379,-200.5"/>
<text text-anchor="middle" x="81.7678" y="-189.3" font-family="Helvetica,sans-Serif" font-size="9.00" fill="#000000">createBookForm.vue</text>
</a>
</g>
</g>
<!-- src/components/organisms/createBookForm.vue&#45;&gt;src/boundary/bookApplicationService/InOutType.ts -->
<g id="edge4" class="edge">
<title>src/components/organisms/createBookForm.vue&#45;&gt;src/boundary/bookApplicationService/InOutType.ts</title>
<path fill="none" stroke="#000000" stroke-width="2" stroke-opacity="0.466667" d="M85.2818,-200.657C95.082,-223.7277 124.9725,-287.2262 169.7983,-321 176.7107,-326.208 184.9192,-330.2206 193.1693,-333.2998"/>
<polygon fill="#000000" fill-opacity="0.466667" stroke="#000000" stroke-width="2" stroke-opacity="0.466667" points="192.2046,-336.6674 202.7982,-336.5016 194.4134,-330.025 192.2046,-336.6674"/>
</g>
<!-- src/components/organisms/createBookForm.vue&#45;&gt;src/boundary/userApplicationService/InOutType.ts -->
<g id="edge5" class="edge">
<title>src/components/organisms/createBookForm.vue&#45;&gt;src/boundary/userApplicationService/InOutType.ts</title>
<path fill="none" stroke="#000000" stroke-width="2" stroke-opacity="0.466667" d="M96.3071,-200.6551C123.1157,-216.6142 180.5464,-250.8024 212.904,-270.0648"/>
<polygon fill="#000000" fill-opacity="0.466667" stroke="#000000" stroke-width="2" stroke-opacity="0.466667" points="211.3167,-273.193 221.6998,-275.3008 214.8974,-267.1781 211.3167,-273.193"/>
</g>
<!-- src/components/organisms/createBookForm.vue&#45;&gt;src/components/atoms/spaceStick.vue -->
<g id="edge6" class="edge">
<title>src/components/organisms/createBookForm.vue&#45;&gt;src/components/atoms/spaceStick.vue</title>
<path fill="none" stroke="#000000" stroke-width="2" stroke-opacity="0.466667" d="M87.0252,-183.2382C99.4361,-163.0888 132.3432,-112.6845 169.7983,-80 181.3721,-69.9004 195.9344,-61.019 208.4806,-54.293"/>
<polygon fill="#000000" fill-opacity="0.466667" stroke="#000000" stroke-width="2" stroke-opacity="0.466667" points="210.319,-57.2828 217.5988,-49.5851 207.1076,-51.0629 210.319,-57.2828"/>
</g>
<!-- src/components/organisms/createBookForm.vue&#45;&gt;src/components/enchanted/imageUploader.vue -->
<g id="edge7" class="edge">
<title>src/components/organisms/createBookForm.vue&#45;&gt;src/components/enchanted/imageUploader.vue</title>
<path fill="none" stroke="#000000" stroke-width="2" stroke-opacity="0.466667" d="M96.3071,-183.3449C123.1157,-167.3858 180.5464,-133.1976 212.904,-113.9352"/>
<polygon fill="#000000" fill-opacity="0.466667" stroke="#000000" stroke-width="2" stroke-opacity="0.466667" points="214.8974,-116.8219 221.6998,-108.6992 211.3167,-110.807 214.8974,-116.8219"/>
</g>
<!-- src/components/organisms/createBookForm.vue&#45;&gt;src/components/molecules/markdown/markdown.ts -->
<g id="edge8" class="edge">
<title>src/components/organisms/createBookForm.vue&#45;&gt;src/components/molecules/markdown/markdown.ts</title>
<path fill="none" stroke="#000000" stroke-width="2" stroke-opacity="0.466667" d="M131.5176,-183.9522C151.2638,-180.758 173.7683,-177.1175 192.8478,-174.0311"/>
<polygon fill="#000000" fill-opacity="0.466667" stroke="#000000" stroke-width="2" stroke-opacity="0.466667" points="193.4544,-177.4786 202.7671,-172.4266 192.3365,-170.5684 193.4544,-177.4786"/>
</g>
<!-- src/config/user/birthday.ts -->
<g id="node8" class="node">
<title>src/config/user/birthday.ts</title>
<g id="a_node8"><a xlink:href="src/config/user/birthday.ts" xlink:title="birthday.ts">
<path fill="#ddfeff" stroke="#000000" d="M259.0025,-472.5C259.0025,-472.5 213.6235,-472.5 213.6235,-472.5 210.7902,-472.5 207.9568,-469.6667 207.9568,-466.8333 207.9568,-466.8333 207.9568,-461.1667 207.9568,-461.1667 207.9568,-458.3333 210.7902,-455.5 213.6235,-455.5 213.6235,-455.5 259.0025,-455.5 259.0025,-455.5 261.8358,-455.5 264.6691,-458.3333 264.6691,-461.1667 264.6691,-461.1667 264.6691,-466.8333 264.6691,-466.8333 264.6691,-469.6667 261.8358,-472.5 259.0025,-472.5"/>
<text text-anchor="middle" x="236.313" y="-461.3" font-family="Helvetica,sans-Serif" font-size="9.00" fill="#000000">birthday.ts</text>
</a>
</g>
</g>
<!-- src/components/organisms/createBookForm.vue&#45;&gt;src/config/user/birthday.ts -->
<g id="edge9" class="edge">
<title>src/components/organisms/createBookForm.vue&#45;&gt;src/config/user/birthday.ts</title>
<path fill="none" stroke="#000000" stroke-width="2" stroke-opacity="0.466667" d="M83.5175,-200.6075C91.9747,-241.3853 129.8473,-414.6255 169.7983,-450 177.5511,-456.8646 187.804,-460.6682 197.9322,-462.7025"/>
<polygon fill="#000000" fill-opacity="0.466667" stroke="#000000" stroke-width="2" stroke-opacity="0.466667" points="197.5142,-466.1789 207.9217,-464.1951 198.5487,-459.2557 197.5142,-466.1789"/>
</g>
<!-- src/config/user/rules.ts -->
<g id="node10" class="node">
<title>src/config/user/rules.ts</title>
<g id="a_node10"><a xlink:href="src/config/user/rules.ts" xlink:title="rules.ts">
<path fill="#ddfeff" stroke="#000000" d="M257.6463,-443.5C257.6463,-443.5 214.9797,-443.5 214.9797,-443.5 212.1463,-443.5 209.313,-440.6667 209.313,-437.8333 209.313,-437.8333 209.313,-432.1667 209.313,-432.1667 209.313,-429.3333 212.1463,-426.5 214.9797,-426.5 214.9797,-426.5 257.6463,-426.5 257.6463,-426.5 260.4797,-426.5 263.313,-429.3333 263.313,-432.1667 263.313,-432.1667 263.313,-437.8333 263.313,-437.8333 263.313,-440.6667 260.4797,-443.5 257.6463,-443.5"/>
<text text-anchor="middle" x="236.313" y="-432.3" font-family="Helvetica,sans-Serif" font-size="9.00" fill="#000000">rules.ts</text>
</a>
</g>
</g>
<!-- src/components/organisms/createBookForm.vue&#45;&gt;src/config/user/rules.ts -->
<g id="edge10" class="edge">
<title>src/components/organisms/createBookForm.vue&#45;&gt;src/config/user/rules.ts</title>
<path fill="none" stroke="#000000" stroke-width="2" stroke-opacity="0.466667" d="M84.2858,-200.5964C92.7894,-228.618 122.5786,-319.0197 169.7983,-380 182.1403,-395.9385 199.8794,-410.3143 213.9348,-420.3681"/>
<polygon fill="#000000" fill-opacity="0.466667" stroke="#000000" stroke-width="2" stroke-opacity="0.466667" points="212.3301,-423.5138 222.5455,-426.3238 216.3121,-417.7567 212.3301,-423.5138"/>
</g>
<!-- src/config/prefecture.ts -->
<g id="node7" class="node">
<title>src/config/prefecture.ts</title>
<g id="a_node7"><a xlink:href="src/config/prefecture.ts" xlink:title="prefecture.ts">
<path fill="#ddfeff" stroke="#000000" d="M409.7076,-523.5C409.7076,-523.5 354.995,-523.5 354.995,-523.5 352.1617,-523.5 349.3284,-520.6667 349.3284,-517.8333 349.3284,-517.8333 349.3284,-512.1667 349.3284,-512.1667 349.3284,-509.3333 352.1617,-506.5 354.995,-506.5 354.995,-506.5 409.7076,-506.5 409.7076,-506.5 412.5409,-506.5 415.3743,-509.3333 415.3743,-512.1667 415.3743,-512.1667 415.3743,-517.8333 415.3743,-517.8333 415.3743,-520.6667 412.5409,-523.5 409.7076,-523.5"/>
<text text-anchor="middle" x="382.3513" y="-512.3" font-family="Helvetica,sans-Serif" font-size="9.00" fill="#000000">prefecture.ts</text>
</a>
</g>
</g>
<!-- src/config/user/gender.ts -->
<g id="node9" class="node">
<title>src/config/user/gender.ts</title>
<g id="a_node9"><a xlink:href="src/config/user/gender.ts" xlink:title="gender.ts">
<path fill="#ddfeff" stroke="#000000" d="M403.6847,-443.5C403.6847,-443.5 361.018,-443.5 361.018,-443.5 358.1847,-443.5 355.3513,-440.6667 355.3513,-437.8333 355.3513,-437.8333 355.3513,-432.1667 355.3513,-432.1667 355.3513,-429.3333 358.1847,-426.5 361.018,-426.5 361.018,-426.5 403.6847,-426.5 403.6847,-426.5 406.518,-426.5 409.3513,-429.3333 409.3513,-432.1667 409.3513,-432.1667 409.3513,-437.8333 409.3513,-437.8333 409.3513,-440.6667 406.518,-443.5 403.6847,-443.5"/>
<text text-anchor="middle" x="382.3513" y="-432.3" font-family="Helvetica,sans-Serif" font-size="9.00" fill="#000000">gender.ts</text>
</a>
</g>
</g>
<!-- src/config/user/rules.ts&#45;&gt;src/config/prefecture.ts -->
<g id="edge11" class="edge">
<title>src/config/user/rules.ts&#45;&gt;src/config/prefecture.ts</title>
<path fill="none" stroke="#000000" stroke-width="2" stroke-opacity="0.466667" d="M263.5707,-435.7521C276.8702,-437.3549 292.418,-441.2008 303.8276,-450 324.0166,-465.57 310.2417,-484.9984 330.0903,-501 333.0039,-503.3489 336.2766,-505.3058 339.7259,-506.9357"/>
<polygon fill="#000000" fill-opacity="0.466667" stroke="#000000" stroke-width="2" stroke-opacity="0.466667" points="338.5531,-510.2343 349.1438,-510.5316 341.05,-503.6948 338.5531,-510.2343"/>
</g>
<!-- src/config/user/rules.ts&#45;&gt;src/config/user/gender.ts -->
<g id="edge12" class="edge">
<title>src/config/user/rules.ts&#45;&gt;src/config/user/gender.ts</title>
<path fill="none" stroke="#000000" stroke-width="2" stroke-opacity="0.466667" d="M263.4394,-435C286.3488,-435 319.3939,-435 344.8373,-435"/>
<polygon fill="#000000" fill-opacity="0.466667" stroke="#000000" stroke-width="2" stroke-opacity="0.466667" points="344.8746,-438.5001 354.8746,-435 344.8746,-431.5001 344.8746,-438.5001"/>
</g>
<!-- src/firebase/debug.ts -->
<g id="node12" class="node">
<title>src/firebase/debug.ts</title>
<g id="a_node12"><a xlink:href="src/firebase/debug.ts" xlink:title="debug.ts">
<path fill="#ddfeff" stroke="#000000" d="M490.9456,-108.5C490.9456,-108.5 448.279,-108.5 448.279,-108.5 445.4456,-108.5 442.6123,-105.6667 442.6123,-102.8333 442.6123,-102.8333 442.6123,-97.1667 442.6123,-97.1667 442.6123,-94.3333 445.4456,-91.5 448.279,-91.5 448.279,-91.5 490.9456,-91.5 490.9456,-91.5 493.779,-91.5 496.6123,-94.3333 496.6123,-97.1667 496.6123,-97.1667 496.6123,-102.8333 496.6123,-102.8333 496.6123,-105.6667 493.779,-108.5 490.9456,-108.5"/>
<text text-anchor="middle" x="469.6123" y="-97.3" font-family="Helvetica,sans-Serif" font-size="9.00" fill="#000000">debug.ts</text>
</a>
</g>
</g>
<!-- src/firebase/index.ts&#45;&gt;src/firebase/debug.ts -->
<g id="edge13" class="edge">
<title>src/firebase/index.ts&#45;&gt;src/firebase/debug.ts</title>
<path fill="none" stroke="#000000" stroke-width="2" stroke-opacity="0.466667" d="M409.4829,-100C416.7061,-100 424.6368,-100 432.3016,-100"/>
<polygon fill="#000000" fill-opacity="0.466667" stroke="#000000" stroke-width="2" stroke-opacity="0.466667" points="432.4975,-103.5001 442.4975,-100 432.4975,-96.5001 432.4975,-103.5001"/>
</g>
</g>
</svg>
