<?xml version="1.0" encoding="UTF-8" standalone="no"?>
<!DOCTYPE svg PUBLIC "-//W3C//DTD SVG 1.1//EN"
 "http://www.w3.org/Graphics/SVG/1.1/DTD/svg11.dtd">
<!-- Generated by graphviz version 2.40.1 (20161225.0304)
 -->
<!-- Title: G Pages: 1 -->
<svg width="1103pt" height="220pt"
 viewBox="0.00 0.00 1103.30 219.81" xmlns="http://www.w3.org/2000/svg" xmlns:xlink="http://www.w3.org/1999/xlink">
<g id="graph0" class="graph" transform="scale(1 1) rotate(0) translate(21.6 198.2083)">
<title>G</title>
<polygon fill="#111111" stroke="transparent" points="-21.6,21.6 -21.6,-198.2083 1081.6957,-198.2083 1081.6957,21.6 -21.6,21.6"/>
<!-- App.tsx -->
<g id="node1" class="node">
<title>App.tsx</title>
<path fill="none" stroke="#c6c5fe" d="M189.9769,-108.1482C189.9769,-108.1482 143.7282,-108.1482 143.7282,-108.1482 139.6953,-108.1482 135.6623,-104.1152 135.6623,-100.0823 135.6623,-100.0823 135.6623,-92.0164 135.6623,-92.0164 135.6623,-87.9834 139.6953,-83.9505 143.7282,-83.9505 143.7282,-83.9505 189.9769,-83.9505 189.9769,-83.9505 194.0098,-83.9505 198.0428,-87.9834 198.0428,-92.0164 198.0428,-92.0164 198.0428,-100.0823 198.0428,-100.0823 198.0428,-104.1152 194.0098,-108.1482 189.9769,-108.1482"/>
<text text-anchor="middle" x="166.8525" y="-92.8986" font-family="Arial" font-size="14.00" fill="#c6c5fe">App.tsx</text>
</g>
<!-- components/AppHeader.tsx -->
<g id="node2" class="node">
<title>components/AppHeader.tsx</title>
<path fill="none" stroke="#cfffac" d="M644.9444,-87.1482C644.9444,-87.1482 473.0918,-87.1482 473.0918,-87.1482 469.0588,-87.1482 465.0259,-83.1152 465.0259,-79.0823 465.0259,-79.0823 465.0259,-71.0164 465.0259,-71.0164 465.0259,-66.9834 469.0588,-62.9505 473.0918,-62.9505 473.0918,-62.9505 644.9444,-62.9505 644.9444,-62.9505 648.9773,-62.9505 653.0103,-66.9834 653.0103,-71.0164 653.0103,-71.0164 653.0103,-79.0823 653.0103,-79.0823 653.0103,-83.1152 648.9773,-87.1482 644.9444,-87.1482"/>
<text text-anchor="middle" x="559.0181" y="-71.8986" font-family="Arial" font-size="14.00" fill="#cfffac">components/AppHeader.tsx</text>
</g>
<!-- App.tsx&#45;&gt;components/AppHeader.tsx -->
<g id="edge1" class="edge">
<title>App.tsx&#45;&gt;components/AppHeader.tsx</title>
<path fill="none" stroke="#757575" d="M198.2822,-94.3663C253.2676,-91.4219 369.2151,-85.213 454.8878,-80.6254"/>
<polygon fill="#757575" stroke="#757575" points="455.1176,-84.1182 464.9161,-80.0884 454.7432,-77.1282 455.1176,-84.1182"/>
</g>
<!-- pages/battle.tsx -->
<g id="node3" class="node">
<title>pages/battle.tsx</title>
<path fill="none" stroke="#c6c5fe" d="M375.8697,-128.1482C375.8697,-128.1482 277.8784,-128.1482 277.8784,-128.1482 273.8454,-128.1482 269.8125,-124.1152 269.8125,-120.0823 269.8125,-120.0823 269.8125,-112.0164 269.8125,-112.0164 269.8125,-107.9834 273.8454,-103.9505 277.8784,-103.9505 277.8784,-103.9505 375.8697,-103.9505 375.8697,-103.9505 379.9026,-103.9505 383.9356,-107.9834 383.9356,-112.0164 383.9356,-112.0164 383.9356,-120.0823 383.9356,-120.0823 383.9356,-124.1152 379.9026,-128.1482 375.8697,-128.1482"/>
<text text-anchor="middle" x="326.874" y="-112.8986" font-family="Arial" font-size="14.00" fill="#c6c5fe">pages/battle.tsx</text>
</g>
<!-- App.tsx&#45;&gt;pages/battle.tsx -->
<g id="edge2" class="edge">
<title>App.tsx&#45;&gt;pages/battle.tsx</title>
<path fill="none" stroke="#757575" d="M198.0862,-99.953C215.6747,-102.1513 238.3484,-104.9851 259.7573,-107.6609"/>
<polygon fill="#757575" stroke="#757575" points="259.4516,-111.1498 269.8085,-108.9171 260.3198,-104.2038 259.4516,-111.1498"/>
</g>
<!-- pages/practice.tsx -->
<g id="node4" class="node">
<title>pages/practice.tsx</title>
<path fill="none" stroke="#c6c5fe" d="M383.1422,-48.1482C383.1422,-48.1482 270.6058,-48.1482 270.6058,-48.1482 266.5729,-48.1482 262.5399,-44.1152 262.5399,-40.0823 262.5399,-40.0823 262.5399,-32.0164 262.5399,-32.0164 262.5399,-27.9834 266.5729,-23.9505 270.6058,-23.9505 270.6058,-23.9505 383.1422,-23.9505 383.1422,-23.9505 387.1752,-23.9505 391.2081,-27.9834 391.2081,-32.0164 391.2081,-32.0164 391.2081,-40.0823 391.2081,-40.0823 391.2081,-44.1152 387.1752,-48.1482 383.1422,-48.1482"/>
<text text-anchor="middle" x="326.874" y="-32.8986" font-family="Arial" font-size="14.00" fill="#c6c5fe">pages/practice.tsx</text>
</g>
<!-- App.tsx&#45;&gt;pages/practice.tsx -->
<g id="edge3" class="edge">
<title>App.tsx&#45;&gt;pages/practice.tsx</title>
<path fill="none" stroke="#757575" d="M198.1633,-85.2273C207.3058,-82.0109 217.2999,-78.4397 226.457,-75.0493 246.3785,-67.6735 268.3904,-59.1652 286.716,-51.9813"/>
<polygon fill="#757575" stroke="#757575" points="288.1797,-55.1667 296.2058,-48.2506 285.6186,-48.652 288.1797,-55.1667"/>
</g>
<!-- pages/room.tsx -->
<g id="node5" class="node">
<title>pages/room.tsx</title>
<path fill="none" stroke="#c6c5fe" d="M374.5185,-170.1482C374.5185,-170.1482 279.2296,-170.1482 279.2296,-170.1482 275.1966,-170.1482 271.1637,-166.1152 271.1637,-162.0823 271.1637,-162.0823 271.1637,-154.0164 271.1637,-154.0164 271.1637,-149.9834 275.1966,-145.9505 279.2296,-145.9505 279.2296,-145.9505 374.5185,-145.9505 374.5185,-145.9505 378.5514,-145.9505 382.5844,-149.9834 382.5844,-154.0164 382.5844,-154.0164 382.5844,-162.0823 382.5844,-162.0823 382.5844,-166.1152 378.5514,-170.1482 374.5185,-170.1482"/>
<text text-anchor="middle" x="326.874" y="-154.8986" font-family="Arial" font-size="14.00" fill="#c6c5fe">pages/room.tsx</text>
</g>
<!-- App.tsx&#45;&gt;pages/room.tsx -->
<g id="edge4" class="edge">
<title>App.tsx&#45;&gt;pages/room.tsx</title>
<path fill="none" stroke="#757575" d="M193.3773,-108.1867C212.4208,-116.7127 238.7951,-128.1393 262.457,-137.0493 267.5483,-138.9665 272.9025,-140.8763 278.2585,-142.7189"/>
<polygon fill="#757575" stroke="#757575" points="277.2505,-146.0726 287.8446,-145.9501 279.4864,-139.4393 277.2505,-146.0726"/>
</g>
<!-- pages/battle.tsx&#45;&gt;components/AppHeader.tsx -->
<g id="edge9" class="edge">
<title>pages/battle.tsx&#45;&gt;components/AppHeader.tsx</title>
<path fill="none" stroke="#757575" d="M384.1526,-104.2453C398.2378,-101.452 413.2933,-98.5581 427.291,-96.0493 441.1816,-93.5598 455.9232,-91.0655 470.3234,-88.7099"/>
<polygon fill="#757575" stroke="#757575" points="470.9136,-92.16 480.2237,-87.103 469.7921,-85.2504 470.9136,-92.16"/>
</g>
<!-- models.ts -->
<g id="node11" class="node">
<title>models.ts</title>
<path fill="none" stroke="#cfffac" d="M834.2374,-169.1482C834.2374,-169.1482 774.5487,-169.1482 774.5487,-169.1482 770.5158,-169.1482 766.4829,-165.1152 766.4829,-161.0823 766.4829,-161.0823 766.4829,-153.0164 766.4829,-153.0164 766.4829,-148.9834 770.5158,-144.9505 774.5487,-144.9505 774.5487,-144.9505 834.2374,-144.9505 834.2374,-144.9505 838.2703,-144.9505 842.3033,-148.9834 842.3033,-153.0164 842.3033,-153.0164 842.3033,-161.0823 842.3033,-161.0823 842.3033,-165.1152 838.2703,-169.1482 834.2374,-169.1482"/>
<text text-anchor="middle" x="804.3931" y="-153.8986" font-family="Arial" font-size="14.00" fill="#cfffac">models.ts</text>
</g>
<!-- pages/battle.tsx&#45;&gt;models.ts -->
<g id="edge10" class="edge">
<title>pages/battle.tsx&#45;&gt;models.ts</title>
<path fill="none" stroke="#757575" d="M374.3468,-128.1374C390.9851,-131.9237 409.867,-135.718 427.291,-138.0493 544.7985,-153.7718 684.4855,-156.7623 756.3665,-157.1632"/>
<polygon fill="#757575" stroke="#757575" points="756.4548,-160.6635 766.4692,-157.2048 756.4837,-153.6636 756.4548,-160.6635"/>
</g>
<!-- pages/battle/GameWithOnlinePlayer.tsx -->
<g id="node12" class="node">
<title>pages/battle/GameWithOnlinePlayer.tsx</title>
<path fill="none" stroke="#c6c5fe" d="M682.9067,-129.1482C682.9067,-129.1482 435.1295,-129.1482 435.1295,-129.1482 431.0965,-129.1482 427.0636,-125.1152 427.0636,-121.0823 427.0636,-121.0823 427.0636,-113.0164 427.0636,-113.0164 427.0636,-108.9834 431.0965,-104.9505 435.1295,-104.9505 435.1295,-104.9505 682.9067,-104.9505 682.9067,-104.9505 686.9396,-104.9505 690.9726,-108.9834 690.9726,-113.0164 690.9726,-113.0164 690.9726,-121.0823 690.9726,-121.0823 690.9726,-125.1152 686.9396,-129.1482 682.9067,-129.1482"/>
<text text-anchor="middle" x="559.0181" y="-113.8986" font-family="Arial" font-size="14.00" fill="#c6c5fe">pages/battle/GameWithOnlinePlayer.tsx</text>
</g>
<!-- pages/battle.tsx&#45;&gt;pages/battle/GameWithOnlinePlayer.tsx -->
<g id="edge11" class="edge">
<title>pages/battle.tsx&#45;&gt;pages/battle/GameWithOnlinePlayer.tsx</title>
<path fill="none" stroke="#757575" d="M383.9602,-116.2952C394.2397,-116.3395 405.3598,-116.3874 416.8393,-116.4369"/>
<polygon fill="#757575" stroke="#757575" points="416.9927,-119.9375 427.0077,-116.4807 417.0229,-112.9375 416.9927,-119.9375"/>
</g>
<!-- pages/practice.tsx&#45;&gt;components/AppHeader.tsx -->
<g id="edge14" class="edge">
<title>pages/practice.tsx&#45;&gt;components/AppHeader.tsx</title>
<path fill="none" stroke="#757575" d="M391.3939,-47.8043C403.3227,-49.9237 415.6782,-52.083 427.291,-54.0493 441.576,-56.468 456.7461,-58.9588 471.5157,-61.3419"/>
<polygon fill="#757575" stroke="#757575" points="471.2322,-64.8411 481.6609,-62.9723 472.343,-57.9298 471.2322,-64.8411"/>
</g>
<!-- pages/practice/GameWithCpu.tsx -->
<g id="node13" class="node">
<title>pages/practice/GameWithCpu.tsx</title>
<path fill="none" stroke="#c6c5fe" d="M662.9829,-45.1482C662.9829,-45.1482 455.0532,-45.1482 455.0532,-45.1482 451.0202,-45.1482 446.9873,-41.1152 446.9873,-37.0823 446.9873,-37.0823 446.9873,-29.0164 446.9873,-29.0164 446.9873,-24.9834 451.0202,-20.9505 455.0532,-20.9505 455.0532,-20.9505 662.9829,-20.9505 662.9829,-20.9505 667.0159,-20.9505 671.0488,-24.9834 671.0488,-29.0164 671.0488,-29.0164 671.0488,-37.0823 671.0488,-37.0823 671.0488,-41.1152 667.0159,-45.1482 662.9829,-45.1482"/>
<text text-anchor="middle" x="559.0181" y="-29.8986" font-family="Arial" font-size="14.00" fill="#c6c5fe">pages/practice/GameWithCpu.tsx</text>
</g>
<!-- pages/practice.tsx&#45;&gt;pages/practice/GameWithCpu.tsx -->
<g id="edge15" class="edge">
<title>pages/practice.tsx&#45;&gt;pages/practice/GameWithCpu.tsx</title>
<path fill="none" stroke="#757575" d="M391.2308,-35.2176C405.4301,-35.0341 420.9273,-34.8339 436.5794,-34.6316"/>
<polygon fill="#757575" stroke="#757575" points="436.9214,-38.1276 446.8753,-34.4985 436.8308,-31.1281 436.9214,-38.1276"/>
</g>
<!-- pages/room.tsx&#45;&gt;components/AppHeader.tsx -->
<g id="edge17" class="edge">
<title>pages/room.tsx&#45;&gt;components/AppHeader.tsx</title>
<path fill="none" stroke="#757575" d="M373.9949,-145.987C380.0548,-143.4997 385.9873,-140.5446 391.291,-137.0493 411.5392,-123.7054 406.0585,-107.7638 427.291,-96.0493 435.9593,-91.2668 445.4059,-87.496 455.1292,-84.5323"/>
<polygon fill="#757575" stroke="#757575" points="456.2167,-87.8631 464.926,-81.8301 454.3554,-81.1151 456.2167,-87.8631"/>
</g>
<!-- pages/room.tsx&#45;&gt;models.ts -->
<g id="edge18" class="edge">
<title>pages/room.tsx&#45;&gt;models.ts</title>
<path fill="none" stroke="#757575" d="M382.7834,-166.5836C397.245,-168.4347 412.8184,-170.1164 427.291,-171.0493 544.1392,-178.5815 573.8742,-178.2207 690.7451,-171.0493 712.3876,-169.7213 736.2185,-166.9835 756.4442,-164.2783"/>
<polygon fill="#757575" stroke="#757575" points="756.928,-167.7448 766.3589,-162.9169 755.9757,-160.8099 756.928,-167.7448"/>
</g>
<!-- components/Board.tsx -->
<g id="node6" class="node">
<title>components/Board.tsx</title>
<path fill="none" stroke="#c6c5fe" d="M874.1234,-86.1482C874.1234,-86.1482 734.6628,-86.1482 734.6628,-86.1482 730.6298,-86.1482 726.5969,-82.1152 726.5969,-78.0823 726.5969,-78.0823 726.5969,-70.0164 726.5969,-70.0164 726.5969,-65.9834 730.6298,-61.9505 734.6628,-61.9505 734.6628,-61.9505 874.1234,-61.9505 874.1234,-61.9505 878.1563,-61.9505 882.1892,-65.9834 882.1892,-70.0164 882.1892,-70.0164 882.1892,-78.0823 882.1892,-78.0823 882.1892,-82.1152 878.1563,-86.1482 874.1234,-86.1482"/>
<text text-anchor="middle" x="804.3931" y="-70.8986" font-family="Arial" font-size="14.00" fill="#c6c5fe">components/Board.tsx</text>
</g>
<!-- components/Cell.tsx -->
<g id="node7" class="node">
<title>components/Cell.tsx</title>
<path fill="none" stroke="#cfffac" d="M1052.0572,-86.1482C1052.0572,-86.1482 926.0796,-86.1482 926.0796,-86.1482 922.0466,-86.1482 918.0137,-82.1152 918.0137,-78.0823 918.0137,-78.0823 918.0137,-70.0164 918.0137,-70.0164 918.0137,-65.9834 922.0466,-61.9505 926.0796,-61.9505 926.0796,-61.9505 1052.0572,-61.9505 1052.0572,-61.9505 1056.0901,-61.9505 1060.1231,-65.9834 1060.1231,-70.0164 1060.1231,-70.0164 1060.1231,-78.0823 1060.1231,-78.0823 1060.1231,-82.1152 1056.0901,-86.1482 1052.0572,-86.1482"/>
<text text-anchor="middle" x="989.0684" y="-70.8986" font-family="Arial" font-size="14.00" fill="#cfffac">components/Cell.tsx</text>
</g>
<!-- components/Board.tsx&#45;&gt;components/Cell.tsx -->
<g id="edge5" class="edge">
<title>components/Board.tsx&#45;&gt;components/Cell.tsx</title>
<path fill="none" stroke="#757575" d="M882.1768,-74.0493C890.5865,-74.0493 899.1614,-74.0493 907.6129,-74.0493"/>
<polygon fill="#757575" stroke="#757575" points="907.8415,-77.5494 917.8414,-74.0493 907.8414,-70.5494 907.8415,-77.5494"/>
</g>
<!-- index.css -->
<g id="node8" class="node">
<title>index.css</title>
<path fill="none" stroke="#cfffac" d="M196.1459,-66.1482C196.1459,-66.1482 137.5592,-66.1482 137.5592,-66.1482 133.5262,-66.1482 129.4933,-62.1152 129.4933,-58.0823 129.4933,-58.0823 129.4933,-50.0164 129.4933,-50.0164 129.4933,-45.9834 133.5262,-41.9505 137.5592,-41.9505 137.5592,-41.9505 196.1459,-41.9505 196.1459,-41.9505 200.1789,-41.9505 204.2118,-45.9834 204.2118,-50.0164 204.2118,-50.0164 204.2118,-58.0823 204.2118,-58.0823 204.2118,-62.1152 200.1789,-66.1482 196.1459,-66.1482"/>
<text text-anchor="middle" x="166.8525" y="-50.8986" font-family="Arial" font-size="14.00" fill="#cfffac">index.css</text>
</g>
<!-- index.tsx -->
<g id="node9" class="node">
<title>index.tsx</title>
<path fill="none" stroke="#c6c5fe" d="M63.3066,-66.1482C63.3066,-66.1482 7.9414,-66.1482 7.9414,-66.1482 3.9085,-66.1482 -.1245,-62.1152 -.1245,-58.0823 -.1245,-58.0823 -.1245,-50.0164 -.1245,-50.0164 -.1245,-45.9834 3.9085,-41.9505 7.9414,-41.9505 7.9414,-41.9505 63.3066,-41.9505 63.3066,-41.9505 67.3396,-41.9505 71.3725,-45.9834 71.3725,-50.0164 71.3725,-50.0164 71.3725,-58.0823 71.3725,-58.0823 71.3725,-62.1152 67.3396,-66.1482 63.3066,-66.1482"/>
<text text-anchor="middle" x="35.624" y="-50.8986" font-family="Arial" font-size="14.00" fill="#c6c5fe">index.tsx</text>
</g>
<!-- index.tsx&#45;&gt;App.tsx -->
<g id="edge6" class="edge">
<title>index.tsx&#45;&gt;App.tsx</title>
<path fill="none" stroke="#757575" d="M71.4828,-65.526C88.2302,-70.886 108.2588,-77.2962 125.6285,-82.8555"/>
<polygon fill="#757575" stroke="#757575" points="124.9124,-86.3011 135.5034,-86.016 127.0462,-79.6342 124.9124,-86.3011"/>
</g>
<!-- index.tsx&#45;&gt;index.css -->
<g id="edge7" class="edge">
<title>index.tsx&#45;&gt;index.css</title>
<path fill="none" stroke="#757575" d="M71.4828,-54.0493C86.2986,-54.0493 103.6824,-54.0493 119.5215,-54.0493"/>
<polygon fill="#757575" stroke="#757575" points="119.6645,-57.5494 129.6644,-54.0493 119.6644,-50.5494 119.6645,-57.5494"/>
</g>
<!-- serviceWorker.ts -->
<g id="node10" class="node">
<title>serviceWorker.ts</title>
<path fill="none" stroke="#cfffac" d="M218.4958,-24.1482C218.4958,-24.1482 115.2093,-24.1482 115.2093,-24.1482 111.1763,-24.1482 107.1434,-20.1152 107.1434,-16.0823 107.1434,-16.0823 107.1434,-8.0164 107.1434,-8.0164 107.1434,-3.9834 111.1763,.0495 115.2093,.0495 115.2093,.0495 218.4958,.0495 218.4958,.0495 222.5288,.0495 226.5617,-3.9834 226.5617,-8.0164 226.5617,-8.0164 226.5617,-16.0823 226.5617,-16.0823 226.5617,-20.1152 222.5288,-24.1482 218.4958,-24.1482"/>
<text text-anchor="middle" x="166.8525" y="-8.8986" font-family="Arial" font-size="14.00" fill="#cfffac">serviceWorker.ts</text>
</g>
<!-- index.tsx&#45;&gt;serviceWorker.ts -->
<g id="edge8" class="edge">
<title>index.tsx&#45;&gt;serviceWorker.ts</title>
<path fill="none" stroke="#757575" d="M71.4828,-42.5726C86.314,-37.8259 103.7186,-32.2555 119.5709,-27.1819"/>
<polygon fill="#757575" stroke="#757575" points="120.7466,-30.4806 129.2038,-24.0989 118.6128,-23.8137 120.7466,-30.4806"/>
</g>
<!-- pages/battle/GameWithOnlinePlayer.tsx&#45;&gt;components/Board.tsx -->
<g id="edge12" class="edge">
<title>pages/battle/GameWithOnlinePlayer.tsx&#45;&gt;components/Board.tsx</title>
<path fill="none" stroke="#757575" d="M637.4513,-104.9828C655.0071,-102.1602 673.5268,-99.0875 690.7451,-96.0493 704.6801,-93.5905 719.5468,-90.82 733.7786,-88.0952"/>
<polygon fill="#757575" stroke="#757575" points="734.8498,-91.4533 744.007,-86.1244 733.5253,-84.5797 734.8498,-91.4533"/>
</g>
<!-- pages/battle/GameWithOnlinePlayer.tsx&#45;&gt;models.ts -->
<g id="edge13" class="edge">
<title>pages/battle/GameWithOnlinePlayer.tsx&#45;&gt;models.ts</title>
<path fill="none" stroke="#757575" d="M632.9714,-129.1049C672.9141,-135.6162 721.0859,-143.4689 756.1797,-149.1898"/>
<polygon fill="#757575" stroke="#757575" points="755.7366,-152.6637 766.1695,-150.8183 756.8629,-145.7549 755.7366,-152.6637"/>
</g>
<!-- pages/practice/GameWithCpu.tsx&#45;&gt;components/Board.tsx -->
<g id="edge16" class="edge">
<title>pages/practice/GameWithCpu.tsx&#45;&gt;components/Board.tsx</title>
<path fill="none" stroke="#757575" d="M636.0204,-45.1116C653.9889,-47.9855 673.0448,-51.0811 690.7451,-54.0493 702.3992,-56.0036 714.7162,-58.1191 726.7719,-60.2177"/>
<polygon fill="#757575" stroke="#757575" points="726.3639,-63.6993 736.817,-61.9727 727.5686,-56.8038 726.3639,-63.6993"/>
</g>
</g>
</svg>
